<?xml version="1.0" standalone="no"?>
<!DOCTYPE svg PUBLIC "-//W3C//DTD SVG 20010904//EN"
 "http://www.w3.org/TR/2001/REC-SVG-20010904/DTD/svg10.dtd">
<svg version="1.0" xmlns="http://www.w3.org/2000/svg"
 width="200.000000pt" height="200.000000pt" viewBox="0 0 200.000000 200.000000"
 preserveAspectRatio="xMidYMid meet">
  <g transform="translate(0.000000,200.000000) scale(0.100000,-0.100000)"
fill="#000000" stroke="none">
    <path d="M817 1288 c-113 -271 -227 -542 -252 -602 l-45 -109 42 38 c87 77
969 958 964 962 -6 7 -486 203 -495 203 -4 0 -100 -222 -214 -492z"/>
    <path d="M566 1366 l-369 -363 7 -69 c14 -137 58 -259 134 -370 42 -62 82
-104 82 -86 0 5 108 268 241 584 248 590 280 668 276 668 -1 -1 -168 -164
-371 -364z"/>
    <path d="M1311 1273 l-274 -268 274 -268 274 -268 43 48 c50 57 124 201 149
293 12 47 17 102 17 195 0 93 -5 148 -17 195 -25 92 -99 236 -149 293 l-43 48
-274 -268z"/>
    <path d="M731 699 c-145 -143 -261 -263 -258 -266 10 -10 512 -213 527 -213
15 0 517 203 527 214 5 5 -510 518 -526 523 -3 1 -125 -115 -270 -258z"/>
  </g>
</svg>